<svg width="47" height="43" viewBox="0 0 47 43" fill="none" xmlns="http://www.w3.org/2000/svg">
<g clip-path="url(#clip0_550_3095)">
<path d="M7.86337 11.0467C8.1513 11.403 8.67577 11.4596 9.03471 11.1734C9.39365 10.8876 9.45071 10.3671 9.16278 10.0104C8.87441 9.65415 8.35037 9.59751 7.99143 9.88329C7.63249 10.1695 7.57499 10.69 7.86337 11.0467Z" fill="#FFEF66"/>
<path d="M25.2022 3.06171C25.4095 3.08419 25.5959 2.93546 25.6186 2.7301C25.6412 2.52431 25.4914 2.33926 25.2845 2.31678C25.0771 2.29387 24.8907 2.44259 24.8685 2.64839C24.8458 2.85418 24.9952 3.03923 25.2022 3.06171Z" fill="#FFEF66"/>
<path d="M8.01607 23.3507C8.22298 23.3732 8.40942 23.2245 8.43207 23.0191C8.45472 22.8133 8.30531 22.6283 8.09796 22.6058C7.89061 22.5833 7.70461 22.7316 7.68196 22.9378C7.65931 23.1432 7.80872 23.3282 8.01607 23.3507Z" fill="#FFEF66"/>
<path d="M34.7585 2.55532C34.9937 2.84672 35.4224 2.89298 35.7155 2.65908C36.0091 2.42561 36.0557 2.00019 35.8205 1.70879C35.5848 1.41782 35.1562 1.37113 34.863 1.60503C34.5699 1.83849 34.5228 2.26435 34.7585 2.55532Z" fill="white"/>
<path d="M29.2074 3.38468C29.3786 3.5961 29.69 3.62982 29.9031 3.45991C30.1161 3.29 30.15 2.98087 29.9788 2.76946C29.8081 2.55804 29.4966 2.52432 29.2836 2.69423C29.0706 2.86371 29.0366 3.17283 29.2074 3.38468Z" fill="white"/>
<path d="M3.99388 22.6161C4.16463 22.8275 4.47609 22.8613 4.6891 22.6914C4.90211 22.5214 4.93653 22.2123 4.7649 22.0009C4.59414 21.7895 4.28268 21.7558 4.06967 21.9257C3.85666 22.0952 3.82268 22.4043 3.99388 22.6161Z" fill="white"/>
<path d="M3.49859 10.6767C3.66978 10.8881 3.98124 10.9218 4.19425 10.7519C4.40726 10.5824 4.44124 10.2733 4.27005 10.0614C4.09885 9.85003 3.78783 9.81631 3.57482 9.98622C3.36181 10.1561 3.32739 10.4653 3.49859 10.6767Z" fill="white"/>
<path d="M17.8536 5.43508C18.2966 5.48307 18.6947 5.16573 18.7435 4.72604C18.7919 4.28592 18.4721 3.89076 18.0291 3.84277C17.5861 3.79434 17.188 4.11212 17.1396 4.55181C17.0912 4.9915 17.411 5.38709 17.8536 5.43508Z" fill="white"/>
<mask id="mask0_550_3095" style="mask-type:luminance" maskUnits="userSpaceOnUse" x="31" y="0" width="2" height="2">
<path d="M31.251 0.477539H32.0316V1.11395H31.251V0.477539Z" fill="white"/>
</mask>
<g mask="url(#mask0_550_3095)">
<path d="M31.4116 0.998441C31.5135 1.12425 31.6986 1.14457 31.8258 1.0434C31.9526 0.942237 31.9731 0.758059 31.8711 0.631815C31.7692 0.506003 31.5836 0.485683 31.4569 0.586851C31.3301 0.688019 31.3096 0.872197 31.4116 0.998441Z" fill="#FFEF66"/>
</g>
<path d="M2.05575 16.0982C2.34368 16.4545 2.86815 16.5116 3.22709 16.2253C3.5856 15.9391 3.6431 15.4186 3.35516 15.0623C3.06679 14.7061 2.54232 14.649 2.18382 14.9352C1.82488 15.221 1.76738 15.742 2.05575 16.0982Z" fill="white"/>
<path d="M21.89 5.43106C21.992 5.55687 22.1775 5.57719 22.3043 5.47602C22.4315 5.37485 22.452 5.19068 22.35 5.06443C22.2481 4.93862 22.0625 4.9183 21.9358 5.01947C21.8086 5.12064 21.7881 5.30481 21.89 5.43106Z" fill="white"/>
<path d="M5.79632 19.8705C5.89825 19.9967 6.08382 20.0166 6.21058 19.9154C6.33778 19.8143 6.35782 19.6301 6.25589 19.5043C6.15395 19.378 5.96839 19.3577 5.84162 19.4589C5.71486 19.5601 5.69439 19.7442 5.79632 19.8705Z" fill="white"/>
<path d="M0.589427 19.5772C0.691359 19.7035 0.876927 19.7234 1.00369 19.6222C1.13089 19.521 1.15092 19.3369 1.04899 19.2111C0.94706 19.0848 0.761492 19.0649 0.63473 19.1661C0.507533 19.2673 0.487496 19.4514 0.589427 19.5772Z" fill="#FFEF66"/>
<path d="M8.57757 19.2847C8.6795 19.4105 8.86507 19.4304 8.99183 19.3292C9.11903 19.2281 9.13907 19.0439 9.03757 18.9181C8.93564 18.7918 8.74964 18.772 8.62287 18.8731C8.49611 18.9743 8.47564 19.1585 8.57757 19.2847Z" fill="white"/>
<path d="M12.5191 7.6935L10.632 7.10465C10.5275 7.07222 10.416 7.12972 10.3833 7.23392C10.3502 7.33768 10.4086 7.44879 10.5131 7.48122C10.5257 7.48511 10.5392 7.48813 10.5523 7.489L12.5191 7.6935ZM12.5526 6.97235L10.771 4.71422C10.7035 4.62862 10.5789 4.61349 10.4926 4.6805C10.4068 4.74752 10.3916 4.8716 10.4591 4.95677C10.4643 4.96369 10.4709 4.97104 10.4774 4.97709L12.5526 6.97235ZM12.425 5.00606C12.4202 4.99395 12.4167 4.98055 12.4145 4.96758C12.3967 4.85992 12.4699 4.75832 12.5783 4.7406C12.6863 4.72287 12.7887 4.79551 12.807 4.90273L13.125 6.818L12.425 5.00606Z" fill="white"/>
<path d="M16.6189 38.2768C16.6189 38.2768 15.1735 37.269 13.0308 36.2871C10.8885 35.3053 6.95496 33.6615 6.57337 33.8452C6.57337 33.8452 6.24492 34.7666 11.5145 37.1544C16.0238 39.1972 16.6189 38.2768 16.6189 38.2768Z" fill="#E6EAF5"/>
<path d="M5.32715 34.9185C5.32715 34.9185 5.57806 34.6924 10.9796 37.1714C13.0857 38.1381 14.4209 38.7023 15.2685 39.0612C16.4569 39.5644 16.4569 39.727 16.4569 39.727C16.4569 39.727 14.0201 40.3971 11.301 39.2138C8.58156 38.0305 5.32715 34.9185 5.32715 34.9185Z" fill="#1A2636"/>
<path d="M30.0734 20.8031C29.6596 20.1148 29.0253 20.1239 27.7124 20.3677C26.711 20.5536 21.6057 22.1736 19.8445 22.9319C17.788 23.8178 14.7915 23.8325 14.5205 24.2575C14.5205 24.2575 13.1201 25.7032 9.26494 29.2727C8.88857 30.0219 7.09823 34.2632 3.88477 40.4435C3.88477 40.4435 14.0893 41.8789 14.4033 41.8953C15.2536 39.7263 16.371 36.9113 16.9272 36.8395C17.7235 36.7366 21.5482 34.7098 24.008 33.1521C24.3121 32.9592 24.5926 32.6925 24.8357 32.5221C25.3527 32.1598 25.6611 31.7599 25.7718 31.5961C25.8994 31.2779 26.1525 31.1516 26.166 31.1179C26.3747 30.587 26.0532 30.0012 26.0532 30.0012C26.1508 29.9488 26.6478 29.1979 26.7179 28.8706C26.7876 28.5433 26.7114 28.2947 26.3507 27.6514C25.9905 27.0089 25.378 26.9523 25.378 26.9523C25.378 26.9523 25.6611 26.628 25.8833 26.4222C26.1059 26.2164 25.8894 25.3029 25.473 24.6686C25.057 24.0344 24.8758 24.3889 24.5164 24.5052C24.1888 24.6111 23.4888 24.8571 22.77 25.2666C24.6919 24.0288 26.7733 23.689 28.6808 22.8671C30.269 22.1827 30.438 21.4101 30.0734 20.8031Z" fill="#FFC09E"/>
<path d="M26.3119 24.0244C26.3119 24.0244 27.2946 24.2691 27.492 24.3149C27.6893 24.3608 30.2075 24.8554 30.4707 25.9453C30.7338 27.0357 27.7154 26.6362 27.2624 26.6505C26.8094 26.6647 25.7988 25.6245 25.8676 25.2613C25.9364 24.8977 26.3119 24.0244 26.3119 24.0244Z" fill="#FFC09E"/>
<path d="M15.1346 37.0486C14.6224 35.8951 14.5631 35.183 15.0876 35.8622C15.6051 36.685 16.9167 36.8476 16.9167 36.8476C16.3404 36.9829 14.662 41.1053 13.7725 41.7983L11.9678 41.6798C13.451 40.6431 15.3076 37.4386 15.1346 37.0486Z" fill="#F7AF8A"/>
<path d="M25.4932 29.1279C25.8917 28.6397 26.0786 28.1715 26.14 27.9843C26.157 27.8191 26.215 27.6894 26.2707 27.5956C24.6124 27.8304 19.5951 27.3937 17.0289 28.0811L16.2884 23.8031L15.3261 23.9307L15.2137 23.6514C15.2137 23.6514 14.4937 25.2022 15.0469 26.9246C15.3252 27.7915 15.4416 28.6596 15.4803 29.3929C15.4864 29.8001 15.4407 31.1746 15.4193 31.3168L15.4298 31.3047C15.4172 31.7647 15.4198 32.0734 15.4742 31.9489C15.6406 31.5654 16.5184 31.1408 16.6464 31.0656C17.3669 30.641 17.8988 31.1201 18.8162 32.2926C19.7362 33.4686 19.8821 34.0877 21.412 34.6904C21.5518 34.5399 28.3978 32.0756 28.5259 31.9325C28.7654 31.6648 25.3063 29.3574 25.4932 29.1279Z" fill="#F7AF8A"/>
<path d="M16.8289 30.4886L27.9669 29.1877C28.4143 29.1336 28.7327 28.7294 28.6778 28.2854L26.0385 6.8572C25.9841 6.41318 25.5772 6.09714 25.1298 6.15161L13.9914 7.4521C13.5445 7.50658 13.226 7.91082 13.2805 8.35483L15.9202 29.783C15.9747 30.227 16.382 30.5431 16.8289 30.4886Z" fill="#1B1B1B"/>
<path d="M27.7357 27.2772C27.8476 27.2634 27.9282 27.1618 27.9143 27.0503L25.4361 6.93078C25.4226 6.81923 25.3198 6.73968 25.2078 6.75352L14.0698 8.05443C13.9574 8.06784 13.8773 8.16944 13.8912 8.28098L16.3694 28.4C16.3829 28.512 16.4853 28.5916 16.5976 28.5777L27.7357 27.2772Z" fill="#E0F3FF"/>
<path d="M24.1004 6.88184L14.0702 8.05219C13.9578 8.06559 13.8776 8.16719 13.8911 8.27873L15.6706 22.6991L24.1004 6.88184Z" fill="#FAFDFF"/>
<path d="M15.775 23.6091C16.0861 22.9329 16.4542 22.2394 16.6933 21.9537C16.9982 21.5901 18.1081 20.3505 18.2332 18.4802C18.3273 17.0682 17.7557 16.6086 17.1224 16.7362C16.7708 16.8071 16.435 17.1629 16.1488 17.533C16.0111 17.7111 15.7877 18.2195 15.1826 18.798L15.775 23.6091Z" fill="#C8E5F7"/>
<path d="M15.2559 19.3946L19.5579 17.4343C20.0096 17.2635 20.4945 17.0569 20.3229 16.6081L18.3565 11.4697C18.1849 11.021 17.6792 10.7957 17.2274 10.966L14.3516 12.0512L15.2559 19.3946Z" fill="#E0F3FF"/>
<path d="M19.9161 16.7341C20.0878 17.1829 19.8604 17.6844 19.4087 17.8552L10.0144 21.3991C9.56222 21.5695 9.05691 21.3442 8.88529 20.8954L6.79656 15.4367C6.62493 14.9879 6.85188 14.4864 7.3036 14.3161L16.6983 10.7717C17.15 10.6014 17.6553 10.8266 17.827 11.2754L19.9161 16.7341Z" fill="#D6314F"/>
<path d="M7.3694 16.9348L18.4002 12.7739L17.9699 11.6494L6.93945 15.8107L7.3694 16.9348Z" fill="#1B1B1B"/>
<path d="M15.317 15.723L8.42921 18.3214L7.96094 17.0978L14.8487 14.499L15.317 15.723Z" fill="#E0F3FF"/>
<path d="M11.8036 20.085L10.1849 20.6959C10.0747 20.7374 9.95141 20.682 9.90915 20.5726L9.57548 19.6997C9.53366 19.5904 9.58898 19.4676 9.69919 19.4261L11.3179 18.8156C11.4285 18.7741 11.5518 18.829 11.5936 18.9384L11.9278 19.8113C11.9696 19.9207 11.9138 20.0435 11.8036 20.085Z" fill="#FE5268"/>
<path d="M25.2238 22.0196C25.2404 22.1653 25.1977 22.311 25.1062 22.4256C25.0143 22.5401 24.8806 22.6132 24.7338 22.6296L18.357 23.3413C18.0525 23.3754 17.7776 23.158 17.7432 22.8557L17.5406 21.081C17.5241 20.9357 17.5663 20.7896 17.6582 20.6754C17.7497 20.5609 17.8839 20.4874 18.0303 20.4709L24.4075 19.7593C24.712 19.7256 24.9864 19.9426 25.0213 20.2453L25.2238 22.0196Z" fill="#FE5268"/>
<path d="M19.7273 21.6946L19.8358 21.6821C19.9368 21.6708 20.0104 21.6419 20.0562 21.5965C20.1019 21.5511 20.1202 21.4901 20.1115 21.4144C20.1024 21.3379 20.0749 21.2834 20.0283 21.2519C19.9821 21.2203 19.9137 21.2095 19.824 21.2199L19.6742 21.2372L19.7273 21.6946ZM20.4426 21.3643C20.4617 21.5303 20.4243 21.6635 20.3302 21.7629C20.2361 21.8632 20.0923 21.9242 19.9002 21.9467L19.7587 21.9626L19.8227 22.5109L19.4934 22.5489L19.3135 21.0072L19.8096 20.9501C19.9982 20.9285 20.1459 20.9523 20.2531 21.0214C20.3607 21.0906 20.4238 21.2052 20.4426 21.3643Z" fill="white"/>
<path d="M21.544 21.663C21.4011 21.3427 21.3205 21.1615 21.3027 21.1191C21.2844 21.0772 21.2709 21.0439 21.2621 21.0193C21.2495 21.1118 21.2086 21.3418 21.1393 21.7097L21.544 21.663ZM21.8101 22.2826L21.6546 21.9285L21.0888 21.9933L21.0186 22.3734L20.6641 22.414L21.0313 20.8031L21.4342 20.7568L22.1647 22.2415L21.8101 22.2826Z" fill="white"/>
<path d="M22.7371 21.2569L22.9867 20.5846L23.3417 20.5439L22.9366 21.5448L23.0063 22.1449L22.6792 22.1825L22.6108 21.5928L21.9844 20.7L22.3416 20.6589L22.7371 21.2569Z" fill="white"/>
<path d="M15.8464 17.0974C16.133 16.7273 16.4685 16.3715 16.82 16.3006C17.4534 16.1731 18.0253 16.6326 17.9308 18.0447C17.8058 19.915 16.6959 21.1541 16.3909 21.5181C15.9862 22.001 15.2135 23.6513 14.9709 24.4105C14.9709 24.4105 14.405 24.0088 13.3539 27.8463C13.0463 28.9687 8.99782 30.3976 9.23566 29.2605C9.57848 27.6193 10.7185 23.8787 11.5945 22.6072C12.47 21.3352 13.3513 19.4334 13.8701 19.1229C15.2793 18.2799 15.6504 17.3512 15.8464 17.0974Z" fill="#FFC09E"/>
<path d="M16.8042 16.4355C16.8042 16.4355 17.0738 16.6375 16.9793 16.9159C16.8848 17.1947 16.6086 17.5838 16.3743 17.8826C16.1395 18.1813 15.8158 18.6124 15.5318 18.3521C15.2473 18.0919 16.8042 16.4355 16.8042 16.4355Z" fill="#F7AF8A"/>
<path d="M16.7075 16.3449C16.7075 16.3449 17.2786 16.5961 16.7698 17.1573C16.3834 17.5836 15.8768 18.5248 15.639 18.3998C15.4007 18.2745 15.1367 18.1002 15.1367 18.1002C15.1367 18.1002 15.3288 17.6134 15.8929 16.9856C16.6304 16.1646 16.7075 16.3449 16.7075 16.3449Z" fill="#FFD5BF"/>
<path d="M15.2648 27.7428C14.8915 26.1388 14.1384 25.3178 14.2664 25.1319C14.7047 24.4963 15.6077 22.1937 15.4975 21.965C15.3306 21.6182 15.5454 21.7553 16.0546 21.3459C16.5643 20.9364 17.364 19.5287 17.6258 18.7423C17.9678 17.7159 17.8354 17.2343 17.8023 16.875C17.9125 17.1534 17.9647 17.5369 17.9308 18.0445C17.8057 19.9148 16.6962 21.1539 16.3909 21.5179C15.9862 22.0009 15.3149 23.636 15.3602 24.3273C15.433 25.4458 15.2648 27.7428 15.2648 27.7428Z" fill="#F7AF8A"/>
<path d="M9.23015 29.2986C9.2785 28.7923 10.557 24.1126 11.5942 22.6068C12.4436 21.3729 13.2991 19.5441 13.8232 19.1537C13.9147 19.0862 14.5541 18.7464 15.1348 18.0996C15.137 18.1005 14.5119 18.9461 14.0998 19.2942C13.6873 19.6426 12.7873 21.3322 12.6318 22.014C12.4767 22.6958 11.8712 23.1074 11.5267 24.1329C11.2422 24.9799 10.378 28.2787 10.3793 29.539C10.3806 30.4486 11.663 31.8805 11.4984 31.932C11.1773 32.0318 10.0151 30.9289 9.59475 31.3163C9.09642 31.7755 6.80949 39.4967 4.77434 40.9014L3.53809 38.5779C6.82604 35.606 7.54392 32.7227 9.23015 29.2986Z" fill="#FFD2BA"/>
<mask id="mask1_550_3095" style="mask-type:luminance" maskUnits="userSpaceOnUse" x="4" y="33" width="13" height="10">
<path d="M4.04102 33.7646H16.6422V42.4807H4.04102V33.7646Z" fill="white"/>
</mask>
<g mask="url(#mask1_550_3095)">
<path d="M10.2284 35.8289C7.22181 34.2629 6.57363 33.8457 6.57363 33.8457L4.12988 38.2137L12.8194 42.4731H14.6162L16.6191 38.2772C16.2946 38.5703 12.2792 36.8967 10.2284 35.8289Z" fill="#E0F3FF"/>
</g>
<mask id="mask2_550_3095" style="mask-type:luminance" maskUnits="userSpaceOnUse" x="0" y="34" width="17" height="9">
<path d="M0.333008 34.8711H16.5306V42.4803H0.333008V34.8711Z" fill="white"/>
</mask>
<g mask="url(#mask2_550_3095)">
<path d="M5.32715 34.917L0.324219 42.4722H15.2768L16.4569 39.7259C15.3491 39.4657 13.2622 38.9149 10.892 37.8206C6.07553 35.5966 5.32715 34.917 5.32715 34.917Z" fill="#1F2F42"/>
</g>
<path d="M15.0774 40.6262C15.2307 40.8281 15.1898 41.1151 14.9863 41.2678C14.7825 41.4199 14.4932 41.3793 14.3399 41.1774C14.1866 40.9751 14.2275 40.688 14.4309 40.5358C14.6348 40.3832 14.924 40.4238 15.0774 40.6262Z" fill="#355070"/>
<mask id="mask3_550_3095" style="mask-type:luminance" maskUnits="userSpaceOnUse" x="13" y="41" width="2" height="2">
<path d="M13.6309 41.623H14.6345V42.4808H13.6309V41.623Z" fill="white"/>
</mask>
<g mask="url(#mask3_550_3095)">
<path d="M13.8831 41.7718C13.6797 41.924 13.6387 42.2115 13.792 42.4134C13.8086 42.4354 13.8278 42.4549 13.8474 42.473H14.472C14.6441 42.3152 14.6733 42.0524 14.5295 41.8626C14.3762 41.6602 14.0869 41.6196 13.8831 41.7718Z" fill="#355070"/>
</g>
<path d="M23.847 25.99C23.3443 25.626 21.5613 24.3471 20.8125 24.0306C20.0062 23.6895 18.6066 22.9982 18.4232 23.4106C18.242 23.8179 18.3187 24.3039 19.3637 25.527C19.9518 26.2157 21.1236 27.2628 21.8371 27.9649L25.6752 27.5166C24.7853 26.5633 24.2978 26.3173 23.847 25.99Z" fill="#C8E5F7"/>
<path d="M31.5723 40.8299C31.5723 40.8299 31.7199 40.3781 33.6401 39.3639C35.5602 38.3492 38.254 36.788 38.9344 36.3249C39.6149 35.8619 40.7156 35.6444 40.9012 35.9155C41.0872 36.1857 37.253 39.2134 37.253 39.2134C37.253 39.2134 31.9347 41.3142 31.5723 40.8299Z" fill="#E6EAF5"/>
<path d="M28.6147 29.325C27.6468 28.4841 24.8145 26.5676 24.101 26.05C23.5983 25.6856 20.8871 23.4486 20.2254 22.9778C19.3507 22.3561 18.5753 22.6449 18.4233 23.4106C18.2887 24.0876 19.2988 25.1542 20.1513 26.0107C20.9681 26.8309 22.119 28.0146 22.7467 28.5788C22.8791 28.6973 24.2513 30.2861 25.3529 31.4759C26.0782 32.2602 26.4371 32.8711 26.4053 33.0713C26.3274 33.5698 29.7943 30.3488 28.6147 29.325Z" fill="#FFC09E"/>
<path d="M19.6002 24.6622C19.913 24.4141 20.5533 23.8455 20.5132 23.651C20.4636 23.4093 19.5079 22.6514 19.1123 22.9186C18.7168 23.1853 18.5439 23.4746 18.6837 23.884C18.7586 24.1023 18.9738 24.3937 19.1864 24.571C19.3266 24.6877 19.5244 24.7223 19.6002 24.6622Z" fill="#FFD5BF"/>
<path d="M33.4819 42.1584H38.2121C38.2383 42.1463 38.2648 42.1342 38.291 42.1212C40.1671 41.2133 42.7376 40.3369 42.0825 39.1614C42.0825 39.1614 40.3209 35.9875 40.1554 35.7355C39.9898 35.4834 39.8744 34.6564 39.7058 33.3671C39.5377 32.0774 38.2335 29.2875 37.5818 27.8271C37.1336 26.8227 36.9197 25.9667 36.0934 25.3281C35.5488 24.907 35.0239 24.1842 34.3021 24.0765C33.5799 23.9693 32.9661 23.9546 32.8233 24.7717C32.8233 24.7717 32.1485 24.1003 30.9959 24.5862C30.1639 24.9369 30.0419 25.3701 29.9687 25.9455C29.9687 25.9455 29.1616 25.3658 28.4267 25.6593C27.6923 25.9524 27.3843 26.2412 27.1782 26.6524C26.9722 27.0636 27.4082 28.2655 27.4082 28.2655C27.4082 28.2655 26.4782 27.6563 25.6092 28.3576C25.1244 28.7484 25.1357 29.0117 25.0952 29.3117C25.0725 29.4786 25.3186 30.4843 26.0117 31.7713C26.0897 31.9157 26.713 33.9854 28.2834 36.0135C29.7954 37.9668 30.708 39.0732 31.658 39.8527C31.8488 40.0092 32.8141 41.2764 33.4819 42.1584Z" fill="#FFC09E"/>
<path d="M34.2313 24.0032C33.5078 23.905 32.894 23.8981 32.7616 24.7165C32.7616 24.7165 32.0785 24.0542 30.932 24.5544C30.1048 24.9158 29.9881 25.3503 29.9223 25.9267C29.9223 25.9267 29.1077 25.3573 28.3772 25.6595C27.6463 25.9621 27.3418 26.2548 27.1409 26.6686C27.009 26.9409 27.1044 27.8821 27.3365 28.2354C27.4964 28.5722 27.9006 28.739 28.1755 29.1342C28.1908 28.5747 26.3691 26.3612 28.5419 25.8307C29.3686 25.6288 30.8148 27.423 30.7099 27.1735C30.0617 25.637 30.1597 25.1454 31.3193 24.691C32.6082 24.186 33.513 26.2756 33.6598 26.2021C33.7805 26.1424 32.9911 24.5985 33.2582 24.2807C33.5078 23.9841 34.5528 24.1791 34.6604 24.183C34.5219 24.1324 34.3711 24.0222 34.2313 24.0032Z" fill="#F7AF8A"/>
<path d="M38.5411 36.6241C38.1586 36.8692 39.4167 36.6133 39.8727 36.9583C40.1746 37.1866 42.1958 40.6353 42.685 41.4265C42.8985 40.9449 43.1019 40.1831 42.8919 39.8174C42.8919 39.8174 40.351 35.8999 40.182 35.65C40.0744 35.49 40.0274 35.1161 39.8684 34.5488C39.8684 34.5488 39.7895 35.8247 38.5411 36.6241Z" fill="#F7AF8A"/>
<path d="M42.087 36.6183C42.087 36.6183 41.7263 36.4303 40.1472 37.314C38.5677 38.1977 32.5359 41.4623 32.5359 41.4623C32.5359 41.4623 31.6695 41.8959 31.7862 42.1523C31.9034 42.4078 36.3265 42.4316 37.7105 41.908C39.0952 41.3845 42.0796 37.1211 42.087 36.6183Z" fill="#1A2636"/>
<mask id="mask4_550_3095" style="mask-type:luminance" maskUnits="userSpaceOnUse" x="31" y="35" width="13" height="8">
<path d="M31.4736 35.8672H43.7403V42.4803H31.4736V35.8672Z" fill="white"/>
</mask>
<g mask="url(#mask4_550_3095)">
<path d="M37.3567 38.4347C35.4757 39.4974 32.0048 40.9017 31.5723 40.8295L32.5493 42.4724H39.7996L43.7335 40.0448L40.9012 35.915C40.9012 35.915 40.5275 36.6427 37.3567 38.4347Z" fill="#E0F3FF"/>
</g>
<mask id="mask5_550_3095" style="mask-type:luminance" maskUnits="userSpaceOnUse" x="31" y="36" width="16" height="7">
<path d="M31.748 36.5996H46.3243V42.473H31.748V36.5996Z" fill="white"/>
</mask>
<g mask="url(#mask5_550_3095)">
<path d="M42.0879 36.6182C42.0879 36.6182 41.5233 37.6493 37.382 39.9195C35.3146 41.0531 32.9284 41.7726 31.7871 42.1521L31.9335 42.4725H46.3255L42.0879 36.6182Z" fill="#1F2F42"/>
</g>
<path d="M30.9776 36.2453C30.8892 35.3054 30.187 34.5596 28.5787 33.5294C28.5787 33.5294 27.7253 33.3469 27.332 33.1757C26.3397 32.7434 24.829 32.0339 24.0088 31.5116C23.1889 30.9889 21.7859 30.72 20.8349 31.2098C19.8897 31.6967 19.7568 32.1908 19.796 32.6275C20.0221 33.3962 22.5965 34.0689 23.31 34.4814C24.0244 34.8934 25.0298 36.2302 26.9739 37.7153C28.4633 38.8532 30.7184 38.9185 31.4027 39.2138C31.482 37.8143 31.063 37.1502 30.9776 36.2453Z" fill="#FFC09E"/>
<path d="M21.9247 32.1875C21.5897 31.9899 20.979 31.7789 20.6628 31.6765C20.5421 31.6371 20.3914 31.6773 20.3596 31.7093C20.0377 32.0362 19.9257 32.3591 19.9201 32.6095C19.8003 33.0522 20.6889 33.4348 21.6093 33.7854C21.8254 33.6384 22.3904 32.462 21.9247 32.1875Z" fill="#FFD5BF"/>
<path d="M20.6631 31.6768L21.925 32.1878C21.925 32.1878 21.3888 31.7451 20.6631 31.6768Z" fill="#F7AF8A"/>
<path d="M28.1752 33.7854C28.9214 34.4555 28.6369 34.663 28.1752 34.4218C27.6072 34.1247 26.3291 32.7227 26.3291 32.7227C26.3291 32.7227 27.9944 33.6224 28.1752 33.7854Z" fill="#F7AF8A"/>
<path d="M25.8567 10.3785C25.3893 10.3344 24.9049 10.4455 24.4872 10.7295C23.5397 11.3729 23.2971 12.6574 23.9453 13.5981C24.488 14.3863 25.483 14.6807 26.3489 14.3781L25.8567 10.3785Z" fill="#C8E5F7"/>
<path d="M26.5043 13.7605C25.5569 14.4038 24.2632 14.163 23.615 13.2222C22.9672 12.2815 23.2094 10.997 24.1573 10.3537C25.1047 9.71033 26.3981 9.95114 27.0462 10.8919C27.6944 11.8327 27.4518 13.1172 26.5043 13.7605Z" fill="#F9FF42"/>
<path d="M26.2006 13.3185C25.4989 13.7949 24.541 13.6168 24.0609 12.9199C23.5809 12.2234 23.7608 11.2718 24.4626 10.7954C25.1639 10.3189 26.1222 10.497 26.6018 11.194C27.0819 11.8909 26.9024 12.8421 26.2006 13.3185Z" fill="#FCCE26"/>
<path d="M25.5458 12.0386C25.44 11.8129 25.4117 11.7039 25.4753 11.6395C25.5297 11.5846 25.6251 11.5699 25.7536 11.6949C25.8712 11.8094 25.9235 11.9205 25.9549 11.9962C26.0054 12.0982 26.1383 12.1151 26.2132 12.0386C26.3386 11.9119 26.1426 11.6534 26.0259 11.5293L26.1431 11.4104C26.2524 11.2824 26.0764 11.1103 25.9505 11.2232C25.9492 11.2223 25.8185 11.3546 25.8185 11.3546C25.5667 11.1899 25.3106 11.2063 25.1403 11.3788C24.9525 11.569 25 11.8073 25.1416 12.0835C25.2392 12.2746 25.2562 12.3831 25.1825 12.4579C25.105 12.5362 24.9856 12.5042 24.8733 12.3948C24.7652 12.2898 24.692 12.1601 24.6494 12.0481C24.5718 11.8531 24.2739 11.9616 24.3462 12.1609C24.3771 12.2777 24.4708 12.4376 24.5971 12.5721L24.4708 12.7005C24.3457 12.8272 24.5378 13.0165 24.665 12.8877L24.804 12.7467C25.0697 12.9288 25.3415 12.9007 25.5136 12.726C25.6878 12.5496 25.6996 12.3499 25.5458 12.0386Z" fill="#F9FF42"/>
<path d="M25.3382 18.4942C24.4713 19.342 23.0757 19.3316 22.2214 18.4708C21.3676 17.61 21.3781 16.2244 22.245 15.3766C23.1122 14.5283 24.5075 14.5387 25.3617 15.3995C26.2159 16.2607 26.2055 17.6459 25.3382 18.4942Z" fill="#C8E5F7"/>
<path d="M25.0031 18.3564C24.1363 19.2043 22.741 19.1939 21.8868 18.3331C21.0326 17.4723 21.043 16.0866 21.9103 15.2388C22.7772 14.3906 24.1724 14.4009 25.0266 15.2622C25.8809 16.123 25.8704 17.5082 25.0031 18.3564Z" fill="#F9FF42"/>
<path d="M24.6023 17.9516C23.9603 18.5798 22.927 18.572 22.2945 17.9343C21.662 17.297 21.6698 16.2706 22.3119 15.6429C22.954 15.0147 23.9873 15.0225 24.6198 15.6602C25.2523 16.2974 25.2449 17.3238 24.6023 17.9516Z" fill="#FCCE26"/>
<path d="M23.6785 16.7383C23.5252 16.5222 23.4751 16.4141 23.5295 16.3345C23.5757 16.2671 23.6728 16.2342 23.8305 16.3406C23.9747 16.4383 24.0501 16.5446 24.0971 16.6177C24.169 16.715 24.311 16.7076 24.375 16.6138C24.4818 16.4582 24.2282 16.2251 24.0827 16.1171L24.1825 15.9714C24.2727 15.8174 24.0566 15.6709 23.9464 15.8118C23.9451 15.811 23.8336 15.9735 23.8336 15.9735C23.5395 15.8486 23.2756 15.9134 23.1305 16.1253C22.9706 16.3583 23.0652 16.5987 23.2651 16.8602C23.4032 17.0414 23.4411 17.1516 23.3784 17.2433C23.3126 17.3393 23.1819 17.3285 23.0434 17.2351C22.9114 17.1456 22.8103 17.0241 22.7446 16.9152C22.627 16.7258 22.3368 16.8944 22.4492 17.089C22.5041 17.2048 22.6317 17.3548 22.7894 17.4716L22.6818 17.629C22.5751 17.7846 22.8112 17.9463 22.9197 17.7885L23.0382 17.6151C23.3501 17.7556 23.628 17.6756 23.7748 17.4616C23.9233 17.245 23.8976 17.034 23.6785 16.7383Z" fill="#F9FF42"/>
<path d="M32.0965 12.9517C32.4097 14.0481 31.7689 15.1895 30.6647 15.5008C29.5604 15.8121 28.4108 15.1757 28.0972 14.0793C27.7836 12.9828 28.4243 11.8415 29.529 11.5302C30.6333 11.2189 31.7829 11.8553 32.0965 12.9517Z" fill="#F9FF42"/>
<path d="M31.5768 13.0975C31.8094 13.9095 31.3346 14.7547 30.517 14.9852C29.6989 15.216 28.8478 14.7448 28.6156 13.9328C28.3834 13.1209 28.8578 12.2757 29.6758 12.0448C30.4935 11.8144 31.3451 12.2856 31.5768 13.0975Z" fill="#FCCE26"/>
<path d="M30.1474 13.3067C29.8978 13.3348 29.785 13.327 29.7436 13.2466C29.7083 13.1778 29.7249 13.0832 29.8852 13.0019C30.0315 12.9275 30.1548 12.9141 30.2367 12.9085C30.3504 12.8934 30.4083 12.7736 30.3591 12.6785C30.2781 12.5203 29.9692 12.6227 29.8133 12.6932L29.7371 12.5453C29.6495 12.4014 29.4295 12.5125 29.497 12.6668C29.4953 12.6677 29.5807 12.8328 29.5807 12.8328C29.3433 13.0179 29.2775 13.2639 29.3881 13.4792C29.5101 13.7161 29.7527 13.7472 30.0616 13.7014C30.2755 13.6703 30.3844 13.6889 30.4323 13.7823C30.4824 13.88 30.414 13.9824 30.2737 14.0533C30.1391 14.1217 29.9919 14.1493 29.8717 14.1541C29.6604 14.1649 29.6695 14.4796 29.8825 14.4753C30.0041 14.4831 30.1866 14.4459 30.3556 14.3694L30.4375 14.5294C30.519 14.6872 30.7612 14.5665 30.6784 14.4061L30.5882 14.2302C30.8461 14.0378 30.9053 13.7732 30.7934 13.5557C30.6806 13.3357 30.4933 13.2609 30.1474 13.3067Z" fill="#F9FF42"/>
<path d="M29.5039 10.4064C28.4684 10.2344 27.7697 9.26116 27.9435 8.23305C28.1169 7.20494 29.097 6.51103 30.1324 6.68354C31.1679 6.85604 31.8666 7.82881 31.6932 8.85692C31.5194 9.88503 30.5393 10.5789 29.5039 10.4064Z" fill="#F9FF42"/>
<path d="M29.5854 9.92394C28.8187 9.7964 28.3012 9.07569 28.4297 8.31433C28.5582 7.55298 29.284 7.03935 30.0511 7.16689C30.8177 7.29444 31.3352 8.01515 31.2067 8.77651C31.0782 9.53786 30.3525 10.0519 29.5854 9.92394Z" fill="#FCCE26"/>
<path d="M29.9721 8.66818C30.0466 8.45244 30.0972 8.36295 30.1808 8.36035C30.2518 8.35862 30.3241 8.40921 30.3289 8.5722C30.3333 8.72179 30.2962 8.82815 30.2688 8.89776C30.237 8.99676 30.3141 9.09101 30.4125 9.08842C30.5759 9.08366 30.6116 8.7901 30.6138 8.63446L30.7671 8.6297C30.9209 8.61457 30.9144 8.39062 30.7597 8.38543C30.7597 8.3837 30.589 8.38889 30.589 8.38889C30.528 8.1217 30.3489 7.97125 30.1263 7.97773C29.8815 7.98508 29.7604 8.17185 29.6772 8.44293C29.6197 8.63057 29.5614 8.71271 29.4651 8.71531C29.364 8.71877 29.3057 8.62235 29.3013 8.47925C29.2974 8.3422 29.3318 8.21076 29.3754 8.10959C29.449 7.93233 29.1833 7.81647 29.1035 7.99329C29.0495 8.08971 29.009 8.25443 29.0064 8.42261L28.8413 8.42737C28.6779 8.43212 28.6832 8.67813 28.8491 8.67337L29.0312 8.66818C29.09 8.95526 29.2869 9.10744 29.5121 9.10096C29.7395 9.09447 29.875 8.96996 29.9721 8.66818Z" fill="#F9FF42"/>
<path d="M35.5286 11.1333C35.1039 11.9366 34.1037 12.2457 33.2948 11.8242C32.4859 11.4022 32.1744 10.4091 32.5991 9.60581C33.0238 8.80252 34.024 8.49339 34.8329 8.91536C35.6418 9.33689 35.9533 10.33 35.5286 11.1333Z" fill="#F9FF42"/>
<path d="M35.1483 10.9349C34.8338 11.5298 34.0929 11.7585 33.4939 11.4463C32.8945 11.1338 32.6641 10.3983 32.9786 9.80344C33.2931 9.20854 34.0341 8.97983 34.633 9.29198C35.2324 9.60456 35.4628 10.34 35.1483 10.9349Z" fill="#FCCE26"/>
<path d="M34.2084 10.2764C34.0494 10.1567 33.9884 10.0909 34.0089 10.0218C34.0263 9.96296 34.0886 9.91757 34.2254 9.95777C34.3513 9.99495 34.4297 10.0538 34.4802 10.0953C34.5538 10.1484 34.6536 10.1108 34.678 10.0295C34.7185 9.89422 34.4832 9.78484 34.3547 9.74074L34.3926 9.61363C34.4214 9.48306 34.2332 9.42729 34.1866 9.5531C34.1857 9.55267 34.1435 9.69448 34.1435 9.69448C33.9048 9.67199 33.7305 9.77792 33.6756 9.9621C33.6151 10.1657 33.7375 10.3158 33.9409 10.4576C34.0812 10.5557 34.1339 10.6257 34.1104 10.7057C34.0851 10.7896 33.9893 10.8112 33.869 10.7758C33.7536 10.742 33.6534 10.6781 33.5811 10.6149C33.4539 10.5064 33.2849 10.6928 33.4103 10.8065C33.4761 10.8769 33.602 10.9548 33.7414 11.0027L33.7005 11.1398C33.6604 11.2751 33.8664 11.3374 33.9078 11.1999L33.9527 11.049C34.2079 11.0788 34.3883 10.9582 34.444 10.7719C34.5002 10.5834 34.4331 10.4381 34.2084 10.2764Z" fill="#F9FF42"/>
<path d="M34.092 4.99686C34.7428 4.57316 35.6162 4.75345 36.0427 5.39937C36.4695 6.04529 36.2883 6.91257 35.638 7.33626C34.9876 7.75996 34.1138 7.5801 33.6869 6.93418C33.2604 6.28826 33.4416 5.42099 34.092 4.99686Z" fill="#F9FF42"/>
<path d="M34.2921 5.30072C34.7744 4.98684 35.4208 5.12043 35.7371 5.5986C36.0533 6.07721 35.9187 6.71924 35.4369 7.03312C34.9556 7.347 34.3083 7.21384 33.9925 6.73523C33.6762 6.25706 33.8108 5.6146 34.2921 5.30072Z" fill="#FCCE26"/>
<path d="M34.7185 6.17664C34.7873 6.33141 34.8051 6.40535 34.7607 6.44815C34.7237 6.4849 34.6583 6.49311 34.573 6.40707C34.495 6.32796 34.461 6.25186 34.4405 6.19998C34.4079 6.13038 34.3181 6.11741 34.2659 6.16799C34.1796 6.2523 34.309 6.42999 34.3865 6.51602L34.3055 6.59471C34.2297 6.68032 34.3469 6.79878 34.4336 6.72398C34.4344 6.72485 34.5246 6.63708 34.5246 6.63708C34.6932 6.75165 34.867 6.74387 34.9846 6.6293C35.1144 6.50262 35.0852 6.34049 34.9929 6.15156C34.9293 6.02056 34.9193 5.94706 34.9702 5.89734C35.0238 5.84546 35.1044 5.86838 35.1789 5.94404C35.2508 6.01667 35.2987 6.10573 35.3261 6.18182C35.3762 6.31542 35.5792 6.24581 35.533 6.10962C35.5134 6.03007 35.452 5.92026 35.3684 5.8273L35.4559 5.74213C35.5417 5.65826 35.4146 5.52726 35.3266 5.61286L35.2303 5.70668C35.0526 5.57957 34.8683 5.59514 34.7494 5.71144C34.6287 5.8286 34.6183 5.96392 34.7185 6.17664Z" fill="#F9FF42"/>
<path d="M39.863 6.15196C39.6984 6.73259 39.0911 7.07069 38.5061 6.90726C37.9215 6.74383 37.5809 6.14072 37.7456 5.56008C37.9102 4.97988 38.5174 4.64135 39.1025 4.80478C39.687 4.9682 40.0277 5.57132 39.863 6.15196Z" fill="#F9FF42"/>
<path d="M39.5887 6.07572C39.4672 6.5059 39.0172 6.75622 38.5842 6.63517C38.1512 6.51454 37.899 6.0675 38.0209 5.63775C38.1425 5.208 38.5925 4.95725 39.0255 5.0783C39.4584 5.19936 39.7107 5.64553 39.5887 6.07572Z" fill="#FCCE26"/>
<path d="M38.8863 5.77651C38.766 5.7203 38.7172 5.68615 38.7212 5.63816C38.7242 5.59795 38.7582 5.55947 38.8527 5.56725C38.9398 5.57374 38.9991 5.60141 39.0378 5.62173C39.0927 5.64594 39.1524 5.60789 39.1572 5.55169C39.1646 5.45787 38.9965 5.41896 38.9067 5.40815L38.9137 5.32039C38.9141 5.23132 38.7843 5.22095 38.7717 5.30915C38.7708 5.30915 38.763 5.40729 38.763 5.40729C38.6044 5.42501 38.506 5.51797 38.496 5.64551C38.4846 5.78602 38.5853 5.86687 38.7373 5.93085C38.8427 5.97582 38.8863 6.0143 38.8819 6.0692C38.8775 6.12714 38.8179 6.15438 38.7347 6.14789C38.6554 6.14184 38.5813 6.11374 38.5256 6.08261C38.4271 6.02943 38.3435 6.17383 38.4406 6.2309C38.4933 6.26765 38.5861 6.30094 38.6833 6.31305L38.6759 6.40773C38.6685 6.50111 38.8113 6.51322 38.8192 6.41854L38.8275 6.31391C38.9973 6.29835 39.098 6.19545 39.1084 6.06661C39.1184 5.93604 39.0548 5.85087 38.8863 5.77651Z" fill="#F9FF42"/>
</g>
<defs>
<clipPath id="clip0_550_3095">
<rect width="46" height="43" fill="white" transform="translate(0.333008)"/>
</clipPath>
</defs>
</svg>
