<svg width="54" height="37" viewBox="0 0 54 37" fill="none" xmlns="http://www.w3.org/2000/svg">
<g clip-path="url(#clip0_809_11735)">
<path d="M30.5745 32.6401C30.4811 30.0776 30.4047 28.1301 30.2944 27.5664C29.5135 23.586 22.587 21.8008 22.3324 21.741C21.8236 21.5584 21.3603 21.267 20.9743 20.8868C20.4611 20.2128 20.1835 19.387 20.1849 18.5378C21.1878 17.4762 21.9394 16.2002 22.3833 14.8051C22.5464 14.8054 22.7078 14.7735 22.8587 14.7112C23.4783 14.4379 23.9367 13.652 24.2338 12.3622C24.5309 11.0724 24.395 10.3293 23.9027 9.86806C23.6939 9.68472 23.432 9.57391 23.1558 9.55202C23.4953 6.33181 23.8009 1.72785 17.7742 0.677227C16.5404 0.472174 15.2816 0.472174 14.0478 0.677227C8.02115 1.72785 8.32673 6.34035 8.66626 9.55202C8.39 9.57391 8.12809 9.68472 7.91929 9.86806C7.41848 10.3293 7.32511 11.1408 7.58825 12.3622C7.85138 13.5837 8.35219 14.4379 8.97184 14.7197C9.12179 14.7736 9.27949 14.8025 9.43869 14.8051C9.87661 16.1991 10.6224 17.4752 11.6202 18.5378C11.6202 19.384 11.3493 20.2077 10.8477 20.8868C10.4795 21.2686 10.0295 21.5608 9.53206 21.741C9.23497 21.8179 2.30854 23.6031 1.51913 27.5835C1.40878 28.1472 1.33238 30.2912 1.2475 32.8366C1.21355 33.742 1.16262 34.4937 1.16262 34.8524C1.16153 34.9665 1.20408 35.0766 1.28145 35.1599C1.31893 35.2021 1.36466 35.236 1.41579 35.2595C1.46692 35.2831 1.52233 35.2957 1.57854 35.2966H30.235C30.2937 35.296 30.3518 35.2836 30.4057 35.2601C30.4596 35.2367 30.5084 35.2026 30.549 35.1599C30.587 35.1187 30.6163 35.0703 30.6353 35.0175C30.6543 34.9646 30.6624 34.9085 30.6594 34.8524C30.6339 34.4681 30.6085 33.6224 30.5745 32.6401ZM14.1921 1.51431C15.3319 1.30937 16.4987 1.30937 17.6384 1.51431C21.7212 2.22327 22.5022 4.68327 22.4767 7.24577C15.9322 8.71493 12.486 5.66556 12.452 5.63139C12.4117 5.59235 12.3636 5.56228 12.311 5.54315C12.2583 5.52402 12.2023 5.51625 12.1465 5.52035C12.0884 5.52497 12.032 5.5418 11.9808 5.56976C11.9296 5.59771 11.8848 5.63617 11.8494 5.68264C11.1856 6.45451 10.3215 7.02531 9.35381 7.33118C9.31137 4.74306 10.0583 2.23181 14.1921 1.51431ZM10.1347 14.2158C10.1214 14.1549 10.0936 14.0983 10.0537 14.0506C10.0137 14.003 9.9629 13.9659 9.90555 13.9424C9.84959 13.9163 9.78896 13.9017 9.72729 13.8997C9.66142 13.8982 9.59654 13.916 9.54055 13.951C9.4993 13.9701 9.45441 13.98 9.40898 13.98C9.36355 13.98 9.31867 13.9701 9.27742 13.951C9.11614 13.8741 8.71719 13.5495 8.42859 12.1914C8.15696 10.987 8.42859 10.6197 8.49649 10.4831C8.57525 10.4331 8.66359 10.4005 8.75573 10.3872C8.84787 10.374 8.94176 10.3805 9.03126 10.4062C9.09704 10.4269 9.1668 10.4315 9.23471 10.4196C9.30263 10.4077 9.36674 10.3797 9.42172 10.3379C9.47618 10.2929 9.51866 10.235 9.54534 10.1694C9.57201 10.1038 9.58204 10.0325 9.5745 9.96202V9.76556C9.52358 9.25306 9.46416 8.72348 9.4302 8.19389C10.5074 7.88363 11.4849 7.2946 12.2653 6.48556C14.2647 7.849 16.642 8.53978 19.0559 8.45868C20.2231 8.4491 21.3863 8.32031 22.5276 8.07431C22.5276 8.63806 22.4343 9.20181 22.3748 9.78264V9.97056C22.3673 10.041 22.3773 10.1123 22.404 10.1779C22.4307 10.2435 22.4732 10.3014 22.5276 10.3464C22.5832 10.387 22.6473 10.4143 22.715 10.4262C22.7827 10.438 22.8521 10.4341 22.9181 10.4147C22.9181 10.4147 23.2661 10.3208 23.4444 10.4916C23.6226 10.6624 23.7924 10.9614 23.5208 12.1999C23.2237 13.5581 22.8077 13.9083 22.6719 13.9595C22.5929 13.9914 22.5048 13.9914 22.4258 13.9595C22.3678 13.9302 22.3039 13.915 22.239 13.915C22.1742 13.915 22.1102 13.9302 22.0523 13.9595C21.9926 13.9845 21.9394 14.0229 21.8968 14.0718C21.8541 14.1206 21.8231 14.1786 21.8061 14.2414C21.8061 14.2414 20.9573 17.6581 18.1986 19.1529C17.5353 19.5147 16.7928 19.7042 16.0383 19.7042C15.2839 19.7042 14.5413 19.5147 13.8781 19.1529C10.9751 17.6324 10.1432 14.2499 10.1347 14.2158ZM11.4504 21.4676C11.9794 20.8339 12.305 20.0536 12.3841 19.2297C12.6937 19.4667 13.02 19.6808 13.3603 19.8703C14.1432 20.2935 15.0181 20.515 15.9068 20.515C16.7955 20.515 17.6703 20.2935 18.4532 19.8703C18.7854 19.6916 19.1007 19.4829 19.3954 19.2468C19.4916 20.0776 19.8281 20.8617 20.3631 21.5018C20.3631 21.5018 20.414 21.5445 20.431 21.5701L15.8983 24.1326L11.3486 21.5701L11.4504 21.4676ZM25.6683 34.451V29.4626C25.6694 29.407 25.6595 29.3516 25.6391 29.2998C25.6187 29.2481 25.5882 29.2009 25.5495 29.1611C25.5108 29.1214 25.4645 29.0898 25.4135 29.0682C25.3625 29.0466 25.3077 29.0355 25.2524 29.0356C25.1398 29.0356 25.0319 29.0806 24.9523 29.1606C24.8727 29.2407 24.8279 29.3494 24.8279 29.4626V34.451H7.00256V29.4626C7.00369 29.407 6.99376 29.3516 6.97337 29.2998C6.95297 29.2481 6.92251 29.2009 6.88378 29.1611C6.84504 29.1214 6.79881 29.0898 6.74778 29.0682C6.69676 29.0466 6.64197 29.0355 6.58663 29.0356C6.53129 29.0355 6.4765 29.0466 6.42548 29.0682C6.37445 29.0898 6.32822 29.1214 6.28948 29.1611C6.25075 29.2009 6.22029 29.2481 6.19989 29.2998C6.1795 29.3516 6.16958 29.407 6.1707 29.4626V34.451H2.01145C2.01145 34.0495 2.01145 33.4858 2.06238 32.8622C2.13028 31.0428 2.21517 28.2924 2.334 27.7372C3.02155 24.3206 9.65939 22.561 9.76974 22.5268C10.0639 22.415 10.3479 22.2779 10.6186 22.1168L15.7115 24.9953C15.7749 25.0358 15.8487 25.0566 15.9237 25.0551C15.9935 25.0564 16.0618 25.0355 16.119 24.9953L21.2119 22.1253C21.4984 22.2867 21.7963 22.4266 22.1032 22.5439C22.1711 22.5439 28.8174 24.2522 29.505 27.7458C29.6153 28.2839 29.7002 30.8208 29.7596 32.6828C29.7596 33.3833 29.8021 34.0153 29.8275 34.4595L25.6683 34.451Z" fill="#2A2F63"/>
<path d="M25.6683 34.4514V29.463C25.6694 29.4073 25.6595 29.352 25.6391 29.3002C25.6187 29.2485 25.5883 29.2013 25.5495 29.1615C25.5108 29.1218 25.4646 29.0902 25.4135 29.0686C25.3625 29.047 25.3077 29.0359 25.2524 29.0359C25.1398 29.0359 25.0319 29.0809 24.9523 29.161C24.8727 29.2411 24.828 29.3498 24.828 29.463V34.4514H7.00258V29.463C7.00371 29.4073 6.99379 29.352 6.97339 29.3002C6.953 29.2485 6.92254 29.2013 6.88381 29.1615C6.84507 29.1218 6.79884 29.0902 6.74781 29.0686C6.69679 29.047 6.642 29.0359 6.58666 29.0359C6.53132 29.0359 6.47653 29.047 6.42551 29.0686C6.37448 29.0902 6.32825 29.1218 6.28951 29.1615C6.25078 29.2013 6.22032 29.2485 6.19992 29.3002C6.17953 29.352 6.1696 29.4073 6.17073 29.463V34.4514H2.01147C2.01147 34.0499 2.01147 33.4861 2.0624 32.8626C2.13031 31.0432 2.21519 28.2928 2.33403 27.7376C3.02158 24.3209 9.65942 22.5614 9.76977 22.5272C10.0639 22.4154 10.3479 22.2782 10.6186 22.1172L15.7116 24.9957C15.7749 25.0362 15.8487 25.057 15.9238 25.0555C15.9935 25.0568 16.0618 25.0359 16.119 24.9957L21.212 22.1257C21.4985 22.2871 21.7963 22.427 22.1032 22.5443C22.1711 22.5443 28.8175 24.2526 29.505 27.7461C29.6154 28.2843 29.7003 30.8211 29.7597 32.6832C29.7597 33.3836 29.8021 34.0157 29.8276 34.4599L25.6683 34.4514Z" fill="#47B28E"/>
<path d="M29.8021 34.4514H28.0535C28.0535 34.0072 28.0535 33.3751 27.9941 32.6747C27.9346 30.8126 27.8582 28.2757 27.7649 27.7376C27.1622 24.2697 21.3647 22.5528 21.3053 22.5357C21.1478 22.4721 20.9946 22.3979 20.8469 22.3136L21.1865 22.1172C21.4729 22.2785 21.7708 22.4184 22.0777 22.5357C22.1456 22.5357 28.792 24.2441 29.4795 27.7376C29.5899 28.2757 29.6747 30.8126 29.7342 32.6747C29.7596 33.3751 29.7766 34.0072 29.8021 34.4514Z" fill="#53BF9F"/>
<path d="M10.9836 22.3049C10.8465 22.3845 10.7048 22.4558 10.5592 22.5184C10.4573 22.5184 4.65982 24.278 4.05715 27.7288C3.95529 28.2926 3.8789 31.043 3.81948 32.8538C3.81948 33.4774 3.81948 34.0411 3.81948 34.4426H2.01147C2.01147 34.0411 2.01147 33.4774 2.0624 32.8538C2.13031 31.0344 2.21519 28.284 2.33403 27.7288C3.02158 24.3122 9.65942 22.5526 9.76976 22.5184C10.0639 22.4066 10.3479 22.2695 10.6186 22.1084L10.9836 22.3049Z" fill="#3BA580"/>
<path d="M22.4766 7.24552C15.9321 8.71469 12.4859 5.66531 12.4519 5.63114C12.4116 5.5921 12.3635 5.56203 12.3109 5.5429C12.2582 5.52377 12.2022 5.516 12.1464 5.5201C12.0883 5.52472 12.0319 5.54155 11.9807 5.56951C11.9295 5.59746 11.8847 5.63592 11.8493 5.68239C11.1855 6.45426 10.3214 7.02506 9.35371 7.33094C9.31127 4.76844 10.0582 2.20594 14.192 1.51406C15.3318 1.30912 16.4986 1.30912 17.6383 1.51406C21.7211 2.22302 22.5021 4.68302 22.4766 7.24552Z" fill="#CADEE5"/>
<path d="M20.4479 21.5704L15.9152 24.1329L11.3655 21.5704L11.4504 21.485C11.9794 20.8512 12.3049 20.0709 12.3841 19.2471C12.6937 19.484 13.0199 19.6982 13.3602 19.8877C14.1431 20.3109 15.018 20.5323 15.9067 20.5323C16.7954 20.5323 17.6703 20.3109 18.4532 19.8877C18.7853 19.7089 19.1007 19.5002 19.3954 19.2642C19.4916 20.095 19.828 20.8791 20.3631 21.5192C20.3631 21.5192 20.431 21.5448 20.4479 21.5704Z" fill="#E9C992"/>
<path d="M23.4103 12.1741C23.1133 13.5322 22.6973 13.8824 22.5615 13.9337C22.4825 13.9655 22.3944 13.9655 22.3154 13.9337C22.2574 13.9044 22.1935 13.8891 22.1286 13.8891C22.0638 13.8891 21.9998 13.9044 21.9419 13.9337C21.8822 13.9587 21.829 13.9971 21.7864 14.046C21.7437 14.0948 21.7127 14.1528 21.6957 14.2156C21.6957 14.2156 20.8469 17.6322 18.0882 19.127C17.4249 19.4888 16.6824 19.6784 15.9279 19.6784C15.1735 19.6784 14.4309 19.4888 13.7677 19.127C10.992 17.6322 10.1601 14.2497 10.1516 14.2156C10.1383 14.1547 10.1105 14.0981 10.0706 14.0504C10.0306 14.0028 9.97981 13.9657 9.92246 13.9422C9.8665 13.9161 9.80587 13.9015 9.74421 13.8995C9.67834 13.898 9.61345 13.9158 9.55746 13.9508C9.51621 13.9699 9.47132 13.9798 9.4259 13.9798C9.38047 13.9798 9.33558 13.9699 9.29433 13.9508C9.13305 13.8739 8.7341 13.5493 8.4455 12.1912C8.17387 10.9868 8.4455 10.6195 8.51341 10.4829C8.59216 10.4329 8.6805 10.4003 8.77264 10.387C8.86478 10.3738 8.95867 10.3802 9.04817 10.406C9.11396 10.4267 9.18371 10.4313 9.25163 10.4194C9.31954 10.4075 9.38365 10.3795 9.43863 10.3376C9.49309 10.2927 9.53558 10.2348 9.56225 10.1692C9.58892 10.1036 9.59895 10.0323 9.59142 9.96181V9.76535C9.54049 9.25285 9.48107 8.72327 9.44712 8.19368C10.5243 7.88342 11.5018 7.2944 12.2822 6.48535C14.2816 7.84879 16.6589 8.53957 19.0728 8.45848C20.24 8.44889 21.4032 8.3201 22.5445 8.0741C22.5445 8.63785 22.4512 9.2016 22.3917 9.78243V9.97035C22.3842 10.0408 22.3942 10.1121 22.4209 10.1777C22.4476 10.2433 22.4901 10.3012 22.5445 10.3462C22.6001 10.3868 22.6642 10.4141 22.7319 10.4259C22.7996 10.4378 22.869 10.4339 22.935 10.4145C22.935 10.4145 23.283 10.3206 23.4613 10.4914C23.6395 10.6622 23.682 10.9612 23.4103 12.1741Z" fill="#F4D398"/>
<path d="M15.6352 19.6649C14.9751 19.629 14.3313 19.4451 13.7508 19.1268C10.9751 17.632 10.1433 14.2495 10.1348 14.2153C10.1215 14.1545 10.0936 14.0978 10.0537 14.0502C10.0138 14.0026 9.96297 13.9655 9.90561 13.942C9.84966 13.9158 9.78903 13.9013 9.72736 13.8993C9.66149 13.8978 9.59661 13.9156 9.54062 13.9505C9.49937 13.9697 9.45448 13.9796 9.40905 13.9796C9.36362 13.9796 9.31873 13.9697 9.27748 13.9505C9.1162 13.8737 8.71726 13.5491 8.42865 12.191C8.15703 10.9866 8.42865 10.6193 8.49656 10.4826C8.57532 10.4327 8.66365 10.4 8.75579 10.3868C8.84794 10.3736 8.94182 10.38 9.03132 10.4057C9.09711 10.4265 9.16686 10.4311 9.23478 10.4192C9.30269 10.4073 9.36681 10.3793 9.42178 10.3374C9.47625 10.2924 9.51873 10.2345 9.5454 10.1689C9.57208 10.1033 9.5821 10.0321 9.57457 9.96158V9.76512C9.52364 9.25262 9.46422 8.72303 9.43027 8.19345C9.79038 8.09393 10.14 7.95948 10.4743 7.79199C10.4743 8.51803 10.6017 9.34658 10.6356 9.76512V9.96158C10.6418 10.0297 10.6337 10.0984 10.6117 10.1631C10.5898 10.2279 10.5546 10.2873 10.5083 10.3374C10.4648 10.3785 10.4108 10.4066 10.3524 10.4187C10.2939 10.4308 10.2333 10.4263 10.1772 10.4057C10.1019 10.3796 10.0212 10.3729 9.94253 10.3863C9.86392 10.3997 9.78992 10.4329 9.72736 10.4826C9.63399 10.5937 9.45573 10.961 9.67643 12.191C9.93108 13.5491 10.2621 13.8993 10.3979 13.9505C10.4315 13.97 10.4695 13.9803 10.5083 13.9803C10.547 13.9803 10.5851 13.97 10.6186 13.9505C10.6632 13.9183 10.7165 13.9004 10.7714 13.8993C10.8249 13.9015 10.8772 13.9161 10.9242 13.942C10.9741 13.9711 11.0173 14.0104 11.051 14.0576C11.0846 14.1047 11.108 14.1585 11.1194 14.2153C11.1194 14.2153 11.807 17.632 14.1243 19.1268C14.5759 19.4293 15.0951 19.6142 15.6352 19.6649Z" fill="#E9C992"/>
<path d="M10.4997 6.84435C10.1488 7.04297 9.77912 7.20606 9.3962 7.33123C9.35375 4.76873 10.1007 2.20622 14.2345 1.51435C14.683 1.43219 15.137 1.38365 15.5926 1.36914C15.2272 1.388 14.8638 1.43657 14.5061 1.51435C11.2466 2.18914 10.4997 4.42706 10.4997 6.84435Z" fill="#BCD2D8"/>
<path d="M17.3497 1.51435C16.9949 1.43665 16.6344 1.38809 16.2717 1.36914C16.7302 1.3837 17.187 1.43223 17.6383 1.51435C21.7212 2.22331 22.5021 4.68331 22.4767 7.24581C22.0947 7.33122 21.7297 7.39956 21.3732 7.45935C21.3771 7.38822 21.3771 7.31693 21.3732 7.24581C21.4071 4.68331 20.7535 2.22331 17.3497 1.51435Z" fill="#D7E9F2"/>
<path d="M23.4104 12.1747C23.1133 13.5328 22.6974 13.883 22.5616 13.9343C22.4826 13.9661 22.3944 13.9661 22.3154 13.9343C22.2575 13.905 22.1935 13.8897 22.1287 13.8897C22.0638 13.8897 21.9999 13.905 21.9419 13.9343C21.8823 13.9593 21.8291 13.9977 21.7864 14.0466C21.7438 14.0954 21.7128 14.1534 21.6958 14.2162C21.6958 14.2162 20.8469 17.6328 18.0883 19.1276C17.5087 19.4481 16.8644 19.6321 16.2039 19.6658C16.7499 19.6178 17.2752 19.4328 17.7317 19.1276C20.0236 17.6243 20.6857 14.2503 20.6857 14.2162C20.6975 14.1572 20.7218 14.1015 20.757 14.0529C20.7921 14.0042 20.8373 13.9638 20.8894 13.9343C20.9368 13.9057 20.9911 13.8906 21.0464 13.8906C21.1017 13.8906 21.156 13.9057 21.2035 13.9343C21.2351 13.9501 21.27 13.9583 21.3053 13.9583C21.3407 13.9583 21.3755 13.9501 21.4072 13.9343C21.5345 13.8574 21.874 13.5328 22.1202 12.1747C22.3494 10.9618 22.1626 10.5945 22.0608 10.4664C21.9589 10.3383 21.6194 10.3895 21.6194 10.3895C21.5645 10.4084 21.5055 10.412 21.4488 10.3999C21.392 10.3879 21.3395 10.3607 21.2968 10.3212C21.2506 10.271 21.2153 10.2117 21.1934 10.1469C21.1714 10.0822 21.1633 10.0135 21.1695 9.94534V9.75742C21.1695 9.44138 21.2459 8.85201 21.2799 8.28826C21.6364 8.22846 22.0098 8.16867 22.3833 8.0918C22.3833 8.65555 22.29 9.2193 22.2305 9.80013V9.98805C22.223 10.0585 22.233 10.1298 22.2597 10.1954C22.2864 10.261 22.3289 10.3189 22.3833 10.3639C22.4389 10.4045 22.503 10.4318 22.5707 10.4436C22.6384 10.4555 22.7078 10.4516 22.7738 10.4322C22.7738 10.4322 23.1218 10.3383 23.3001 10.5091C23.4783 10.6799 23.682 10.9618 23.4104 12.1747Z" fill="#FBDEA2"/>
<path d="M43.6278 22.4503V20.853L43.8146 20.6736C45.4014 21.4618 47.1386 21.896 48.9075 21.9463H49.2895C49.3635 21.9373 49.4338 21.9089 49.4934 21.864C49.553 21.819 49.5998 21.759 49.629 21.6901C49.6584 21.6196 49.6676 21.5422 49.6556 21.4668C49.6436 21.3913 49.6109 21.3207 49.5611 21.263C49.4678 21.1519 47.3372 18.5553 48.6359 14.1734C49.4847 11.3205 48.916 8.33944 47.2269 6.57985C46.8311 6.11554 46.3237 5.76103 45.7531 5.55019C45.1825 5.33934 44.5677 5.27919 43.9674 5.37548C42.7302 4.47641 41.2409 3.99678 39.7149 4.00599C38.1889 4.0152 36.7054 4.51279 35.4791 5.42673C34.1063 6.41829 33.0696 7.81048 32.5093 9.41472C31.9491 11.019 31.8924 12.7577 32.3469 14.3955C32.7239 15.4899 32.7918 16.6682 32.5431 17.7992C32.2943 18.9302 31.7386 19.9696 30.9378 20.8017C30.884 20.8571 30.8448 20.9253 30.8241 21C30.8033 21.0746 30.8016 21.1533 30.819 21.2288C30.8376 21.3022 30.8759 21.3689 30.9299 21.4217C30.9838 21.4745 31.0512 21.5112 31.1246 21.5278C33.1039 21.8553 35.1354 21.5568 36.9391 20.6736L37.1258 20.853V22.4503C31.515 22.6296 27.916 26.294 27.916 31.923V34.7246C27.916 34.8356 27.9598 34.9421 28.0378 35.0206C28.1158 35.0991 28.2216 35.1432 28.3319 35.1432H52.4217C52.532 35.1432 52.6378 35.0991 52.7158 35.0206C52.7938 34.9421 52.8376 34.8356 52.8376 34.7246V31.923C52.8376 26.294 49.2386 22.6296 43.6278 22.4503ZM32.0583 20.8017C32.7682 19.8608 33.2377 18.759 33.4257 17.5929C33.6136 16.4268 33.5143 15.2321 33.1363 14.1136C32.756 12.6451 32.8211 11.0956 33.3234 9.66471C33.8256 8.23377 34.7419 6.98685 35.9544 6.08444C37.07 5.24955 38.4265 4.8051 39.8167 4.81899C41.2069 4.83287 42.5544 5.30432 43.6533 6.16131C43.7006 6.19547 43.7548 6.21857 43.8121 6.22891C43.8694 6.23926 43.9282 6.23659 43.9843 6.2211C44.4661 6.11976 44.9662 6.15205 45.4312 6.31453C45.8962 6.47702 46.3085 6.76358 46.6242 7.1436C47.3941 8.06913 47.9103 9.18102 48.1218 10.3691C48.3332 11.5572 48.2324 12.7803 47.8295 13.9171C47.4324 15.0909 47.2824 16.335 47.3891 17.5703C47.4958 18.8055 47.8568 20.0049 48.4492 21.0921C47.0477 20.9723 45.6777 20.6082 44.4003 20.0159C45.5663 18.4343 46.1809 16.5097 46.1488 14.5407C46.1843 12.4941 45.5189 10.4975 44.2644 8.8861C44.222 8.83363 44.1671 8.7928 44.1047 8.76741C44.0424 8.74203 43.9747 8.7329 43.9079 8.74089C43.8421 8.74358 43.7779 8.763 43.7215 8.79735C43.6651 8.8317 43.6183 8.87987 43.5854 8.93735C42.1763 11.3376 40.5466 11.4999 38.8319 11.628C37.4399 11.7561 36.0053 11.8928 34.7745 13.2338C34.7165 13.2984 34.6782 13.3785 34.6642 13.4644C34.6251 13.8218 34.6052 14.1811 34.6048 14.5407C34.563 16.5031 35.1591 18.4256 36.3024 20.0159C34.9652 20.5983 33.5139 20.867 32.0583 20.8017ZM35.4536 14.5407C35.4385 14.2562 35.4385 13.971 35.4536 13.6865C36.4382 12.6701 37.5757 12.5676 38.8489 12.4565C40.4956 12.3028 42.3461 12.1405 43.9419 9.89402C44.845 11.2747 45.3152 12.8965 45.2915 14.5492C45.2915 18.3076 43.0676 21.3826 40.3513 21.3826C37.6351 21.3826 35.4366 18.299 35.4366 14.5407H35.4536ZM42.8045 21.4765V22.8603C42.8045 24.4319 41.5652 24.9871 40.3938 24.9871C39.2224 24.9871 37.9746 24.4319 37.9746 22.8603V21.4765C38.6942 21.9446 39.5327 22.1937 40.3895 22.1937C41.2464 22.1937 42.0849 21.9446 42.8045 21.4765ZM51.9888 34.3061H48.6783V30.1378C48.6783 30.0245 48.6336 29.9159 48.554 29.8358C48.4744 29.7557 48.3665 29.7107 48.2539 29.7107C48.1414 29.7107 48.0334 29.7557 47.9538 29.8358C47.8742 29.9159 47.8295 30.0245 47.8295 30.1378V34.3061H32.8901V30.1378C32.8901 30.0245 32.8454 29.9159 32.7658 29.8358C32.6862 29.7557 32.5783 29.7107 32.4657 29.7107C32.3532 29.7107 32.2452 29.7557 32.1656 29.8358C32.086 29.9159 32.0413 30.0245 32.0413 30.1378V34.3061H28.7479V31.923C28.7479 26.7211 31.9649 23.4496 37.1682 23.2959C37.2681 24.0585 37.6587 24.7521 38.2574 25.2303C38.8561 25.7085 39.6161 25.9337 40.3768 25.8584C42.1848 25.8584 43.3902 24.8761 43.5854 23.2959C48.7802 23.4496 52.0058 26.7126 52.0058 31.923L51.9888 34.3061Z" fill="#2A2F63"/>
<path d="M44.4003 20.0156C45.5663 18.434 46.181 16.5094 46.1489 14.5404C46.1843 12.4937 45.5189 10.4972 44.2645 8.88579C44.222 8.83332 44.1671 8.79249 44.1048 8.7671C44.0425 8.74172 43.9748 8.73259 43.908 8.74058C43.8421 8.74326 43.778 8.76269 43.7216 8.79704C43.6652 8.83139 43.6183 8.87956 43.5854 8.93704C42.1764 11.3373 40.5466 11.4995 38.832 11.6277C37.4399 11.7558 36.0054 11.8925 34.7746 13.2335C34.7165 13.2981 34.6782 13.3782 34.6643 13.4641C34.6251 13.8215 34.6053 14.1808 34.6048 14.5404C34.563 16.5028 35.1591 18.4253 36.3025 20.0156C34.9653 20.598 33.514 20.8667 32.0583 20.8014C32.7682 19.8605 33.2377 18.7587 33.4257 17.5926C33.6137 16.4264 33.5143 15.2317 33.1364 14.1133C32.756 12.6448 32.8212 11.0953 33.3234 9.6644C33.8257 8.23346 34.742 6.98654 35.9545 6.08413C37.0701 5.24924 38.4266 4.80479 39.8168 4.81867C41.207 4.83256 42.5544 5.30401 43.6533 6.161C43.7006 6.19516 43.7549 6.21826 43.8121 6.2286C43.8694 6.23895 43.9283 6.23628 43.9844 6.22079C44.4662 6.11944 44.9663 6.15174 45.4312 6.31422C45.8962 6.4767 46.3086 6.76327 46.6242 7.14329C47.3942 8.06882 47.9104 9.18071 48.1218 10.3688C48.3332 11.5569 48.2325 12.78 47.8296 13.9168C47.4325 15.0906 47.2825 16.3347 47.3891 17.5699C47.4958 18.8052 47.8568 20.0046 48.4492 21.0918C47.0478 20.972 45.6777 20.6078 44.4003 20.0156Z" fill="#A0D2F1"/>
<path d="M51.9887 31.923V34.3061H48.6783V30.1378C48.6783 30.0245 48.6336 29.9159 48.554 29.8358C48.4744 29.7557 48.3664 29.7107 48.2539 29.7107C48.1413 29.7107 48.0334 29.7557 47.9538 29.8358C47.8742 29.9159 47.8295 30.0245 47.8295 30.1378V34.3061H32.8901V30.1378C32.8901 30.0245 32.8454 29.9159 32.7658 29.8358C32.6862 29.7557 32.5782 29.7107 32.4657 29.7107C32.3531 29.7107 32.2452 29.7557 32.1656 29.8358C32.086 29.9159 32.0413 30.0245 32.0413 30.1378V34.3061H28.7478V31.923C28.7478 26.7211 31.9649 23.4496 37.1682 23.2959C37.268 24.0585 37.6586 24.7522 38.2573 25.2303C38.856 25.7085 39.616 25.9337 40.3767 25.8584C42.1848 25.8584 43.3901 24.8761 43.5853 23.2959C48.7801 23.4496 51.9887 26.7211 51.9887 31.923Z" fill="#EA625C"/>
<path d="M37.1767 23.3301C33.1108 23.7059 30.6237 26.9261 30.6237 31.923V34.3061H28.7478V31.923C28.7478 26.7211 31.9649 23.4496 37.1682 23.2959C37.1669 23.3079 37.1699 23.32 37.1767 23.3301Z" fill="#E15E5A"/>
<path d="M51.9888 31.923V34.3061H50.1299V31.923C50.1299 26.9261 47.6428 23.7059 43.5769 23.3301C48.7802 23.4497 51.9888 26.7211 51.9888 31.923Z" fill="#F26E61"/>
<path d="M42.7876 21.4766V22.8603C42.7876 24.432 41.5483 24.9872 40.3769 24.9872C39.2055 24.9872 37.9578 24.432 37.9578 22.8603V21.4766C38.6773 21.9447 39.5159 22.1937 40.3727 22.1937C41.2295 22.1937 42.0681 21.9447 42.7876 21.4766Z" fill="#E9C992"/>
<path d="M45.3169 14.5402C45.3169 18.2986 43.093 21.3736 40.3768 21.3736C37.6605 21.3736 35.4366 18.3242 35.4366 14.5402C35.4215 14.2557 35.4215 13.9706 35.4366 13.6861C36.4212 12.6696 37.5587 12.5671 38.8319 12.4561C40.4786 12.3023 42.3291 12.14 43.9249 9.89355C44.8413 11.267 45.3263 12.8859 45.3169 14.5402Z" fill="#F4D398"/>
<path d="M45.317 14.5409C45.317 18.2053 43.2034 21.212 40.572 21.3743C42.5922 21.1949 44.3748 18.2566 44.3748 14.6093C44.3472 13.2071 44.0503 11.8236 43.5005 10.5349C43.6896 10.3346 43.86 10.1173 44.0098 9.88574C44.8979 11.2712 45.3532 12.8926 45.317 14.5409Z" fill="#FBDEA2"/>
<path d="M40.1815 21.3403C37.5417 21.2122 35.4366 18.2055 35.4366 14.507C35.4215 14.2224 35.4215 13.9373 35.4366 13.6528C35.8003 13.3082 36.235 13.0486 36.7098 12.8926C36.6145 13.4367 36.5719 13.9888 36.5825 14.5411C36.5486 18.1799 38.1528 21.1609 40.1815 21.3403Z" fill="#E9C992"/>
</g>
<defs>
<clipPath id="clip0_809_11735">
<rect width="53" height="36" fill="white" transform="translate(0.5 0.5)"/>
</clipPath>
</defs>
</svg>
